<svg version="1.1"
     baseProfile="full"
     xmlns="http://www.w3.org/2000/svg">

    <circle cx="220" cy="220" r="80" fill="#26CCE9" />

    <circle cx="220" cy="220" r="20" fill="black" />

    <path d ="M 0,240 A 20 20 45 0 0 40,240" fill="none" stroke ="black" stroke-width ="5" />
    <path d ="M 0,200 A 20 20 -45 0 1 40,200" fill="none" stroke ="black" stroke-width ="5" />

    <path d ="M 20,260 A 200 200 45 0 0 180,420" fill="none" stroke ="black" stroke-width ="5" />

    <path d ="M 200,440 A 20 20 45 0 1 200,400" fill="none" stroke ="black" stroke-width ="5" />
    <path d ="M 240,440 A 20 20 45 0 0 240,400" fill="none" stroke ="black" stroke-width ="5" />

    <path d ="M 260,420 A 200 200 45 0 0 420,260" fill="none" stroke="black" stroke-width="5" />

    <path d ="M 400,240 A 20 20 45 0 0 440,240" fill="none" stroke="black" stroke-width="5" />
    <path d ="M 400,200 A 20 20 45 0 1 440,200" fill="none" stroke="black" stroke-width="5" />

    <path d ="M 420,180 A 200 200 45 0 0 260,20" fill="none" stroke="black" stroke-width="5" />

    <path d ="M 200,40 A 20 20 45 0 1 200,0" fill="none" stroke ="black" stroke-width ="5" />
    <path d ="M 240,40 A 20 20 45 0 0 240,0" fill="none" stroke ="black" stroke-width ="5" />

    <path d ="M 180,20 A 200 200 45 0 0 20,180" fill="none" stroke="black" stroke-width="5" />

</svg>